{
  "accessors": [
    {
      "bufferView": 2,
      "componentType": 5126,
      "count": 17721,
      "max": [
        13.814138412475586,
        17.283689498901367,
        10.930215835571289
      ],
      "min": [
        -15.358001708984375,
        -0.04770469665527344,
        -16.807239532470703
      ],
      "type": "VEC3"
    },
    {
      "bufferView": 2,
      "byteOffset": 212652,
      "componentType": 5126,
      "count": 17721,
      "max": [
        1.0,
        1.0,
        1.0
      ],
      "min": [
        -1.0,
        -1.0,
        -0.999975323677063
      ],
      "type": "VEC3"
    },
    {
      "bufferView": 3,
      "componentType": 5126,
      "count": 17721,
      "max": [
        1.0,
        1.0,
        1.0,
        1.0
      ],
      "min": [
        -0.9975160956382751,
        -1.0,
        -0.9999498128890991,
        -1.0
      ],
      "type": "VEC4"
    },
    {
      "bufferView": 1,
      "componentType": 5126,
      "count": 17721,
      "max": [
        0.9996352195739746,
        1.09257173538208
      ],
      "min": [
        0.011453693732619286,
        -0.09940016269683838
      ],
      "type": "VEC2"
    },
    {
      "bufferView": 1,
      "byteOffset": 141768,
      "componentType": 5126,
      "count": 17721,
      "max": [
        0.9996352195739746,
        1.09257173538208
      ],
      "min": [
        0.011453693732619286,
        -0.09940016269683838
      ],
      "type": "VEC2"
    },
    {
      "bufferView": 1,
      "byteOffset": 283536,
      "componentType": 5126,
      "count": 17721,
      "max": [
        0.9996352195739746,
        1.09257173538208
      ],
      "min": [
        0.011453693732619286,
        -0.09940016269683838
      ],
      "type": "VEC2"
    },
    {
      "bufferView": 0,
      "componentType": 5125,
      "count": 56103,
      "type": "SCALAR"
    }
  ],
  "asset": {
    "extras": {
      "author": "CREATRBOI (https://sketchfab.com/CREATRBOI)",
      "license": "CC-BY-4.0 (http://creativecommons.org/licenses/by/4.0/)",
      "source": "https://sketchfab.com/3d-models/laptop-c60c42a462484cde82679312cb26a537",
      "title": "Laptop"
    },
    "generator": "Sketchfab-13.74.0",
    "version": "2.0"
  },
  "bufferViews": [
    {
      "buffer": 0,
      "byteLength": 224412,
      "name": "floatBufferViews",
      "target": 34963
    },
    {
      "buffer": 0,
      "byteLength": 425304,
      "byteOffset": 224412,
      "byteStride": 8,
      "name": "floatBufferViews",
      "target": 34962
    },
    {
      "buffer": 0,
      "byteLength": 425304,
      "byteOffset": 649716,
      "byteStride": 12,
      "name": "floatBufferViews",
      "target": 34962
    },
    {
      "buffer": 0,
      "byteLength": 283536,
      "byteOffset": 1075020,
      "byteStride": 16,
      "name": "floatBufferViews",
      "target": 34962
    }
  ],
  "buffers": [
    {
      "byteLength": 1358556,
      "uri": "scene.bin"
    }
  ],
  "extensionsRequired": [
    "KHR_materials_pbrSpecularGlossiness"
  ],
  "extensionsUsed": [
    "KHR_materials_pbrSpecularGlossiness"
  ],
  "images": [
    {
      "uri": "textures/material_diffuse.png"
    },
    {
      "uri": "textures/material_specularGlossiness.png"
    }
  ],
  "materials": [
    {
      "doubleSided": true,
      "extensions": {
        "KHR_materials_pbrSpecularGlossiness": {
          "diffuseFactor": [
            1.0,
            1.0,
            1.0,
            1.0
          ],
          "diffuseTexture": {
            "index": 0
          },
          "glossinessFactor": 1.0,
          "specularFactor": [
            1.0,
            1.0,
            1.0
          ],
          "specularGlossinessTexture": {
            "index": 1,
            "texCoord": 1
          }
        }
      },
      "name": "material",
      "normalTexture": {
        "index": 0,
        "scale": 0.0
      }
    }
  ],
  "meshes": [
    {
      "name": "Object_0",
      "primitives": [
        {
          "attributes": {
            "NORMAL": 1,
            "POSITION": 0,
            "TANGENT": 2,
            "TEXCOORD_0": 3,
            "TEXCOORD_1": 4,
            "TEXCOORD_2": 5
          },
          "indices": 6,
          "material": 0,
          "mode": 4
        }
      ]
    }
  ],
  "nodes": [
    {
      "children": [
        1
      ],
      "matrix": [
        1.0,
        0.0,
        0.0,
        0.0,
        0.0,
        2.220446049250313e-16,
        -1.0,
        0.0,
        0.0,
        1.0,
        2.220446049250313e-16,
        0.0,
        0.0,
        0.0,
        0.0,
        1.0
      ],
      "name": "Sketchfab_model"
    },
    {
      "children": [
        2
      ],
      "name": "root"
    },
    {
      "children": [
        3
      ],
      "matrix": [
        1.0,
        0.0,
        0.0,
        0.0,
        0.0,
        2.220446049250313e-16,
        1.0,
        0.0,
        0.0,
        -1.0,
        2.220446049250313e-16,
        0.0,
        0.0,
        0.0,
        0.0,
        1.0
      ],
      "name": "GLTF_SceneRootNode"
    },
    {
      "children": [
        4
      ],
      "name": "root_0"
    },
    {
      "children": [
        5
      ],
      "matrix": [
        0.017550993710756302,
        0.0,
        0.0,
        0.0,
        0.0,
        0.017550993710756302,
        0.0,
        0.0,
        0.0,
        0.0,
        0.017550993710756302,
        0.0,
        0.07092941552400589,
        -0.15409158170223236,
        0.3075747787952423,
        1.0
      ],
      "name": "node_id30_1"
    },
    {
      "mesh": 0,
      "name": "Object_5"
    }
  ],
  "samplers": [
    {
      "magFilter": 9729,
      "minFilter": 9987,
      "wrapS": 10497,
      "wrapT": 10497
    }
  ],
  "scene": 0,
  "scenes": [
    {
      "name": "Sketchfab_Scene",
      "nodes": [
        0
      ]
    }
  ],
  "textures": [
    {
      "sampler": 0,
      "source": 0
    },
    {
      "sampler": 0,
      "source": 1
    }
  ]
}
